<svg xmlns="http://www.w3.org/2000/svg" viewBox="0 0 320 320"><title>logo_dark</title><g id="图层_2" data-name="图层 2"><g id="图层_1-2" data-name="图层 1"><path d="M10,90H130a60,60,0,0,0,60-60V10A10,10,0,0,0,180,0H10A10,10,0,0,0,0,10V80A10,10,0,0,0,10,90Z" fill="#3e3a39"/><path d="M210,130H190V110a10,10,0,0,0-10-10H10A10,10,0,0,0,0,110v70a10,10,0,0,0,10,10H130V310a10,10,0,0,0,10,10h70a10,10,0,0,0,10-10V140A10,10,0,0,0,210,130Zm5,180a5,5,0,0,1-5,5H140a5,5,0,0,1-5-5V190a55.06,55.06,0,0,1,55-55h20a5,5,0,0,1,5,5Z" fill="#3e3a39"/><path d="M310,130H290a60,60,0,0,0-60,60V310a10,10,0,0,0,10,10h70a10,10,0,0,0,10-10V140A10,10,0,0,0,310,130Zm5,180a5,5,0,0,1-5,5H240a5,5,0,0,1-5-5V190a55.06,55.06,0,0,1,55-55h20a5,5,0,0,1,5,5Z" fill="#3e3a39"/><path d="M110,230H90V210a10,10,0,0,0-10-10H10A10,10,0,0,0,0,210v70a10,10,0,0,0,10,10H30v20a10,10,0,0,0,10,10h70a10,10,0,0,0,10-10V240A10,10,0,0,0,110,230Zm5,80a5,5,0,0,1-5,5H40a5,5,0,0,1-5-5V290c0-.08,0-.15,0-.22A60,60,0,0,0,89.78,235H110a5,5,0,0,1,5,5Z" fill="#3e3a39"/></g></g></svg>