<svg xmlns="http://www.w3.org/2000/svg" viewBox="0 0 320 320"><title>logo_light</title><g id="图层_2" data-name="图层 2"><g id="图层_1-2" data-name="图层 1"><path d="M230,310V190a60,60,0,0,1,60-60h20a10,10,0,0,1,10,10V310a10,10,0,0,1-10,10H240A10,10,0,0,1,230,310Z" fill="#fff"/><path d="M190,10V30a60,60,0,0,1-60,60H10A10,10,0,0,1,0,80V10A10,10,0,0,1,10,0H180A10,10,0,0,1,190,10ZM10,5a5,5,0,0,0-5,5V80a5,5,0,0,0,5,5H130a55.06,55.06,0,0,0,55-55V10a5,5,0,0,0-5-5Z" fill="#fff"/><path d="M90,210v20h20a10,10,0,0,1,10,10v70a10,10,0,0,1-10,10H40a10,10,0,0,1-10-10V290H10A10,10,0,0,1,0,280V210a10,10,0,0,1,10-10H80A10,10,0,0,1,90,210Zm-80-5a5,5,0,0,0-5,5v70a5,5,0,0,0,5,5H30a55.06,55.06,0,0,0,55-55V210a5,5,0,0,0-5-5Z" fill="#fff"/><path d="M190,110v20h20a10,10,0,0,1,10,10V310a10,10,0,0,1-10,10H140a10,10,0,0,1-10-10V190H10A10,10,0,0,1,0,180V110a10,10,0,0,1,10-10H180A10,10,0,0,1,190,110ZM10,105a5,5,0,0,0-5,5v70a5,5,0,0,0,5,5H130.22A60,60,0,0,1,185,130.22c0-.07,0-.14,0-.22V110a5,5,0,0,0-5-5Z" fill="#fff"/></g></g></svg>